<?xml version="1.0" encoding="utf-8" standalone="yes"?><!-- Generator: Adobe Illustrator 22.0.1, SVG Export Plug-In . SVG Version: 6.00 Build 0)  --><svg xmlns="http://www.w3.org/2000/svg" xmlns:xlink="http://www.w3.org/1999/xlink" version="1.1" id="Layer_1" x="0px" y="0px" viewBox="0 0 1921 100" style="enable-background:new 0 0 1921 501;zoom: 1;" xml:space="preserve"><style type="text/css">
        .st0{fill:#E0F5FF;}
</style><g id="_x31_920x1024"><polygon points="0.2,92.5 75.199997,92.5 75.199997,59 131.199997,43.200001 175.199997,67.300003 175.199997,92.5 199.199997,92.5 199.199997,59 229.199997,43.200001 274.200012,43.200001 274.200012,67.300003 292.200012,67.300003 292.200012,25.4 336.200012,33.799999 336.200012,67.300003 418.200012,67.300003 446.200012,43.200001 538.200012,43.200001 538.200012,77.800003 562.200012,77.800003 562.200012,59 554.200012,59 582.200012,40.099998 609.200012,59 601.200012,59 601.200012,77.800003 614.200012,77.800003 614.200012,48.5 655.200012,63.099998 655.200012,77.800003 665.200012,77.800003 665.200012,43.200001 693.200012,33.799999 693.200012,59 702.200012,59 702.200012,45.299999 712.200012,50.599998 712.200012,74.699997 725.200012,72.599998 725.200012,48.5 741.200012,48.5 743.200012,74.699997 755.200012,74.699997 755.200012,56.900002 772.200012,45.299999 821.200012,53.700001 823.200012,70.5 831.200012,70.5 831.200012,56.900002 847.200012,45.299999 867.200012,56.900002 867.200012,70.5 888.200012,50.599998 888.200012,35.900002 951.200012,35.900002 980.200012,53.700001 980.200012,67.300003 991.200012,67.300003 991.200012,48.5 1009.200012,40.099998 1024.199951,53.700001 1038.199951,48.5 1079.199951,48.5 1081.199951,67.300003 1089.199951,67.300003 1089.199951,33.799999 1112.199951,33.799999 1112.199951,48.5 1119.199951,48.5 1119.199951,38 1160.199951,38 1160.199951,59 1169.199951,59 1177.199951,38 1191.199951,59 1248.199951,59 1248.199951,33.799999 1273.199951,33.799999 1273.199951,19.1 1304.199951,19.1 1304.199951,59 1317.199951,59 1317.199951,35.900002 1347.199951,35.900002 1368.199951,59 1451.199951,59 1451.199951,25.4 1504.199951,6.5 1576.199951,29.6 1576.199951,59 1595.199951,59 1595.199951,19.1 1625.199951,0.2 1656.199951,0.2 1656.199951,59 1675.199951,59 1675.199951,29.6 1757.199951,59 1783.199951,59 1783.199951,43.200001 1771.199951,43.200001 1823.199951,6.5 1874.199951,43.200001 1860.199951,43.200001 1860.199951,59 1889.199951,59 1889.199951,13.9 1920.199951,13.9 1920.199951,100 0.2,100" id="Path-22" class="st0"></polygon></g></svg>